<svg xmlns="http://www.w3.org/2000/svg" width="720" height="480">
<rect width="100%" height="100%" fill="#ffffff"/>
<text x="12" y="20" font-size="14" fill="#222222">mechanism</text>
<line x1="58" y1="198" x2="338" y2="198" stroke="#333333" stroke-width="1"/>
<line x1="58" y1="32" x2="58" y2="198" stroke="#333333" stroke-width="1"/>
<text x="58" y="214" font-size="10" fill="#444444">0.50</text>
<text x="314" y="214" font-size="10" fill="#444444">0.65</text>
<text x="12" y="36" font-size="10" fill="#444444">0.408</text>
<text x="12" y="202" font-size="10" fill="#444444">0.152</text>
<polyline points="58.00,58.21 338.00,43.45" fill="none" stroke="#1f77b4" stroke-width="2"/>
<circle cx="58.00" cy="58.21" r="3" fill="#1f77b4"/>
<circle cx="338.00" cy="43.45" r="3" fill="#1f77b4"/>
<rect x="12" y="214" width="8" height="8" fill="#1f77b4"/>
<text x="24" y="221" font-size="10" fill="#333333">tgmm</text>
<polyline points="58.00,186.55 338.00,147.84" fill="none" stroke="#d62728" stroke-width="2"/>
<circle cx="58.00" cy="186.55" r="3" fill="#d62728"/>
<circle cx="338.00" cy="147.84" r="3" fill="#d62728"/>
<rect x="12" y="202" width="8" height="8" fill="#d62728"/>
<text x="24" y="209" font-size="10" fill="#333333">em</text>
<polyline points="58.00,185.67 338.00,167.29" fill="none" stroke="#2ca02c" stroke-width="2"/>
<circle cx="58.00" cy="185.67" r="3" fill="#2ca02c"/>
<circle cx="338.00" cy="167.29" r="3" fill="#2ca02c"/>
<rect x="12" y="190" width="8" height="8" fill="#2ca02c"/>
<text x="24" y="197" font-size="10" fill="#333333">kmeans</text>
<polyline points="58.00,136.52 338.00,49.81" fill="none" stroke="#ff7f0e" stroke-width="2"/>
<circle cx="58.00" cy="136.52" r="3" fill="#ff7f0e"/>
<circle cx="338.00" cy="49.81" r="3" fill="#ff7f0e"/>
<rect x="12" y="178" width="8" height="8" fill="#ff7f0e"/>
<text x="24" y="185" font-size="10" fill="#333333">spectral</text>
<text x="240" y="20" font-size="10" fill="#555555">metric=parameter_error</text>
<text x="372" y="20" font-size="14" fill="#222222">prior_imbalance</text>
<line x1="418" y1="198" x2="698" y2="198" stroke="#333333" stroke-width="1"/>
<line x1="418" y1="32" x2="418" y2="198" stroke="#333333" stroke-width="1"/>
<text x="418" y="214" font-size="10" fill="#444444">-0.80</text>
<text x="674" y="214" font-size="10" fill="#444444">1.20</text>
<text x="372" y="36" font-size="10" fill="#444444">10.175</text>
<text x="372" y="202" font-size="10" fill="#444444">2.843</text>
<circle cx="558.00" cy="186.55" r="3" fill="#1f77b4"/>
<rect x="372" y="214" width="8" height="8" fill="#1f77b4"/>
<text x="384" y="221" font-size="10" fill="#333333">tgmm</text>
<circle cx="558.00" cy="182.76" r="3" fill="#d62728"/>
<rect x="372" y="202" width="8" height="8" fill="#d62728"/>
<text x="384" y="209" font-size="10" fill="#333333">em</text>
<circle cx="558.00" cy="183.13" r="3" fill="#2ca02c"/>
<rect x="372" y="190" width="8" height="8" fill="#2ca02c"/>
<text x="384" y="197" font-size="10" fill="#333333">kmeans</text>
<circle cx="558.00" cy="43.45" r="3" fill="#ff7f0e"/>
<rect x="372" y="178" width="8" height="8" fill="#ff7f0e"/>
<text x="384" y="185" font-size="10" fill="#333333">spectral</text>
<text x="600" y="20" font-size="10" fill="#555555">metric=parameter_error</text>
<text x="12" y="260" font-size="14" fill="#222222">sample_size</text>
<line x1="58" y1="438" x2="338" y2="438" stroke="#333333" stroke-width="1"/>
<line x1="58" y1="272" x2="58" y2="438" stroke="#333333" stroke-width="1"/>
<text x="58" y="454" font-size="10" fill="#444444">8.00</text>
<text x="314" y="454" font-size="10" fill="#444444">16.00</text>
<text x="12" y="276" font-size="10" fill="#444444">2.893</text>
<text x="12" y="442" font-size="10" fill="#444444">0.212</text>
<polyline points="58.00,374.54 338.00,415.56" fill="none" stroke="#1f77b4" stroke-width="2"/>
<circle cx="58.00" cy="374.54" r="3" fill="#1f77b4"/>
<circle cx="338.00" cy="415.56" r="3" fill="#1f77b4"/>
<rect x="12" y="454" width="8" height="8" fill="#1f77b4"/>
<text x="24" y="461" font-size="10" fill="#333333">tgmm</text>
<polyline points="58.00,377.25 338.00,426.45" fill="none" stroke="#d62728" stroke-width="2"/>
<circle cx="58.00" cy="377.25" r="3" fill="#d62728"/>
<circle cx="338.00" cy="426.45" r="3" fill="#d62728"/>
<rect x="12" y="442" width="8" height="8" fill="#d62728"/>
<text x="24" y="449" font-size="10" fill="#333333">em</text>
<polyline points="58.00,377.23 338.00,426.55" fill="none" stroke="#2ca02c" stroke-width="2"/>
<circle cx="58.00" cy="377.23" r="3" fill="#2ca02c"/>
<circle cx="338.00" cy="426.55" r="3" fill="#2ca02c"/>
<rect x="12" y="430" width="8" height="8" fill="#2ca02c"/>
<text x="24" y="437" font-size="10" fill="#333333">kmeans</text>
<polyline points="58.00,283.45 338.00,418.57" fill="none" stroke="#ff7f0e" stroke-width="2"/>
<circle cx="58.00" cy="283.45" r="3" fill="#ff7f0e"/>
<circle cx="338.00" cy="418.57" r="3" fill="#ff7f0e"/>
<rect x="12" y="418" width="8" height="8" fill="#ff7f0e"/>
<text x="24" y="425" font-size="10" fill="#333333">spectral</text>
<text x="240" y="260" font-size="10" fill="#555555">metric=parameter_error</text>
</svg>
